<svg viewBox="0 0 560 640" xmlns="http://www.w3.org/2000/svg">
  <defs>
    <radialGradient id="bg" cx="50%" cy="40%" r="80%">
      <stop offset="0%" stop-color="#4a7d31"/>
      <stop offset="38%" stop-color="#153a28"/>
      <stop offset="100%" stop-color="#02060a"/>
    </radialGradient>
    <radialGradient id="screen" cx="50%" cy="45%" r="72%">
      <stop offset="0%" stop-color="#a6ff70"/>
      <stop offset="55%" stop-color="#2f9a3c"/>
      <stop offset="100%" stop-color="#08320f"/>
    </radialGradient>
    <linearGradient id="beige" x1="0" y1="0" x2="0" y2="1">
      <stop offset="0%" stop-color="#ddd3ac"/>
      <stop offset="50%" stop-color="#c3b98d"/>
      <stop offset="100%" stop-color="#877d55"/>
    </linearGradient>
    <linearGradient id="rim" x1="0" y1="0" x2="1" y2="1">
      <stop offset="0" stop-color="#6cf0c0"/>
      <stop offset="1" stop-color="#9a6cff"/>
    </linearGradient>
    <radialGradient id="vig" cx="50%" cy="44%" r="72%">
      <stop offset="52%" stop-color="#000" stop-opacity="0"/>
      <stop offset="100%" stop-color="#000" stop-opacity="0.92"/>
    </radialGradient>
    <filter id="soft"><feGaussianBlur stdDeviation="4.5"/></filter>
    <filter id="mist" x="-20%" y="-20%" width="140%" height="140%">
      <feTurbulence type="fractalNoise" baseFrequency="0.011" numOctaves="2" seed="7" result="n"/>
      <feColorMatrix in="n" type="matrix"
        values="0 0 0 0 0.28  0 0 0 0 0.72  0 0 0 0 0.52  0 0 0 0.55 0"/>
      <feGaussianBlur stdDeviation="7"/>
    </filter>
    <filter id="grain">
      <feTurbulence type="fractalNoise" baseFrequency="0.9" numOctaves="2" seed="3" result="n"/>
      <feColorMatrix in="n" type="matrix"
        values="0 0 0 0 0  0 0 0 0 0  0 0 0 0 0  0 0 0 0.7 0"/>
    </filter>
  </defs>

  <!-- sickly green void -->
  <rect width="560" height="640" fill="url(#bg)"/>
  <g opacity="0.4"><rect width="560" height="640" filter="url(#mist)"/></g>

  <!-- the tech, hunched and watching from the murk (soft focus) -->
  <g filter="url(#soft)">
    <ellipse cx="300" cy="180" rx="130" ry="140" fill="#2f6440" opacity="0.45"/>
    <path d="M175 380 Q198 215 300 205 Q402 215 425 380 Z" fill="#04070b"/>
    <ellipse cx="300" cy="188" rx="60" ry="68" fill="#04070b"/>
    <path d="M243 148 Q232 212 262 252" stroke="url(#rim)" stroke-width="5" fill="none" opacity="0.7"/>
    <path d="M357 158 Q368 212 342 250" stroke="url(#rim)" stroke-width="4" fill="none" opacity="0.5"/>
    <!-- glasses catching the screen glow -->
    <rect x="266" y="184" width="27" height="19" rx="4" fill="#0a0f14" stroke="#7fe9c8" stroke-width="1.6" opacity="0.85"/>
    <rect x="305" y="184" width="27" height="19" rx="4" fill="#0a0f14" stroke="#7fe9c8" stroke-width="1.6" opacity="0.85"/>
    <line x1="293" y1="193" x2="305" y2="193" stroke="#7fe9c8" stroke-width="1.6" opacity="0.85"/>
    <circle cx="279" cy="191" r="3.4" fill="#d6fff2" opacity="0.9"/>
    <circle cx="318" cy="191" r="2.6" fill="#a6ffd8" opacity="0.7"/>
  </g>

  <!-- mist drifting in front of the figure -->
  <g opacity="0.3"><rect y="210" width="560" height="280" filter="url(#mist)"/></g>

  <!-- desk -->
  <rect x="0" y="474" width="560" height="166" fill="#090b07"/>
  <rect x="0" y="470" width="560" height="7" fill="#1b1f12"/>

  <!-- the machine we're trapped inside -->
  <rect x="150" y="298" width="262" height="222" rx="18" fill="url(#beige)" stroke="#645d40" stroke-width="2"/>
  <rect x="172" y="320" width="218" height="152" rx="10" fill="#191913"/>
  <rect x="184" y="330" width="194" height="132" rx="6" fill="url(#screen)"/>

  <!-- the thing inside the screen, looking back out -->
  <ellipse cx="256" cy="392" rx="9" ry="13" fill="#031a06"/>
  <ellipse cx="306" cy="392" rx="9" ry="13" fill="#031a06"/>
  <circle cx="257" cy="387" r="3" fill="#e2ffdc"/>
  <circle cx="307" cy="387" r="3" fill="#e2ffdc"/>
  <path d="M249 428 Q281 444 313 428" stroke="#031a06" stroke-width="5" fill="none"/>

  <!-- screen scanlines -->
  <g opacity="0.16" stroke="#04240a" stroke-width="1.4">
    <line x1="184" y1="342" x2="378" y2="342"/><line x1="184" y1="354" x2="378" y2="354"/>
    <line x1="184" y1="366" x2="378" y2="366"/><line x1="184" y1="378" x2="378" y2="378"/>
    <line x1="184" y1="390" x2="378" y2="390"/><line x1="184" y1="402" x2="378" y2="402"/>
    <line x1="184" y1="414" x2="378" y2="414"/><line x1="184" y1="426" x2="378" y2="426"/>
    <line x1="184" y1="438" x2="378" y2="438"/><line x1="184" y1="450" x2="378" y2="450"/>
  </g>

  <!-- vents + power LED -->
  <g stroke="#7d744e" stroke-width="2.4" opacity="0.7">
    <line x1="182" y1="492" x2="236" y2="492"/><line x1="182" y1="500" x2="236" y2="500"/>
    <line x1="182" y1="508" x2="236" y2="508"/>
  </g>
  <circle cx="392" cy="502" r="4" fill="#8fff5a"/>
  <circle cx="392" cy="502" r="8" fill="#8fff5a" opacity="0.25"/>

  <!-- keyboard -->
  <rect x="150" y="542" width="262" height="40" rx="6" fill="url(#beige)" opacity="0.82"/>
  <g stroke="#5a5238" stroke-width="1" opacity="0.5">
    <line x1="160" y1="556" x2="402" y2="556"/><line x1="160" y1="568" x2="402" y2="568"/>
  </g>

  <!-- grade -->
  <rect width="560" height="640" fill="url(#vig)"/>
  <rect width="560" height="640" filter="url(#grain)" opacity="0.06"/>
</svg>
